<svg xmlns="http://www.w3.org/2000/svg" width="17.832" height="25.344" viewBox="0 0 17.832 25.344">
  <g id="noun-arrow-2321438" transform="translate(0 25.344) rotate(-90)">
    <path id="Pfad_1" data-name="Pfad 1" d="M25.008,7.995,18.437.485A1.408,1.408,0,0,0,16.449.346a1.464,1.464,0,0,0-.139,1.988l4.532,5.177H1.408a1.408,1.408,0,0,0,0,2.816H20.842L16.31,15.5a1.478,1.478,0,0,0,.139,1.988,1.426,1.426,0,0,0,1.988-.139l6.571-7.51a1.436,1.436,0,0,0,0-1.848Z" transform="translate(0)" fill="#061f15"/>
  </g>
</svg>
