<svg xmlns="http://www.w3.org/2000/svg" width="17.832" height="25.344" viewBox="0 0 17.832 25.344">
  <g id="noun-arrow-2321438" transform="translate(-173.619 224.144) rotate(-90)">
    <path id="Pfad_1" data-name="Pfad 1" d="M223.807,181.613l-6.571-7.51a1.408,1.408,0,0,0-1.988-.139,1.464,1.464,0,0,0-.139,1.988l4.532,5.177H200.208a1.408,1.408,0,0,0,0,2.816h19.434l-4.532,5.177a1.478,1.478,0,0,0,.139,1.988,1.426,1.426,0,0,0,1.988-.139l6.571-7.51a1.436,1.436,0,0,0,0-1.848Z" transform="translate(0 0)" fill="#fff"/>
  </g>
</svg>
